<svg xmlns="http://www.w3.org/2000/svg" width="260" height="420" viewBox="0 0 260 420" role="img" aria-label="MiniStatTray taskbar preview">
  <defs>
    <linearGradient id="wallpaper" x1="0" y1="0" x2="1" y2="1">
      <stop offset="0" stop-color="#314347"/>
      <stop offset="0.45" stop-color="#496a59"/>
      <stop offset="1" stop-color="#23323a"/>
    </linearGradient>
    <filter id="shadow" x="-20%" y="-20%" width="140%" height="140%">
      <feDropShadow dx="0" dy="2" stdDeviation="3" flood-color="#000" flood-opacity="0.28"/>
    </filter>
  </defs>

  <rect width="260" height="420" fill="url(#wallpaper)"/>
  <rect x="0" y="0" width="54" height="420" fill="#20272c" opacity="0.96"/>
  <rect x="54" y="0" width="1" height="420" fill="#586167" opacity="0.7"/>

  <g fill="#f1f5f7" opacity="0.95">
    <rect x="19" y="14" width="16" height="16" rx="2"/>
    <circle cx="27" cy="58" r="7" fill="none" stroke="#f1f5f7" stroke-width="2"/>
    <line x1="32" y1="63" x2="37" y2="68" stroke="#f1f5f7" stroke-width="2" stroke-linecap="round"/>
    <rect x="19" y="91" width="16" height="14" rx="1" fill="none" stroke="#f1f5f7" stroke-width="2"/>
    <line x1="19" y1="98" x2="35" y2="98" stroke="#f1f5f7" stroke-width="2"/>
  </g>

  <g transform="translate(12 142)" filter="url(#shadow)">
    <rect x="0" y="0" width="15" height="15" rx="2" fill="#161a1d"/>
    <rect x="0" y="11" width="6" height="4" fill="#69d05e"/>
    <text x="13.5" y="10.8" text-anchor="end" font-family="Arial Narrow, Segoe UI, sans-serif" font-size="9" font-weight="700" fill="#fff">7</text>

    <rect x="21" y="0" width="15" height="15" rx="2" fill="#161a1d"/>
    <rect x="21" y="2" width="3" height="13" fill="#5daeff"/>
    <text x="34.5" y="10.8" text-anchor="end" font-family="Arial Narrow, Segoe UI, sans-serif" font-size="9" font-weight="700" fill="#fff">33</text>

    <rect x="0" y="21" width="15" height="15" rx="2" fill="#161a1d"/>
    <rect x="0" y="28" width="8" height="8" fill="#e6b848"/>
    <text x="13.5" y="31.8" text-anchor="end" font-family="Arial Narrow, Segoe UI, sans-serif" font-size="9" font-weight="700" fill="#fff">39</text>

    <rect x="21" y="21" width="15" height="15" rx="2" fill="#161a1d"/>
    <rect x="21" y="32" width="4" height="4" fill="#74e089"/>
    <text x="34.5" y="31.8" text-anchor="end" font-family="Arial Narrow, Segoe UI, sans-serif" font-size="9" font-weight="700" fill="#fff">0</text>

    <rect x="0" y="42" width="15" height="15" rx="2" fill="#161a1d"/>
    <rect x="0" y="52" width="5" height="5" fill="#ffb852"/>
    <text x="13.5" y="52.8" text-anchor="end" font-family="Arial Narrow, Segoe UI, sans-serif" font-size="9" font-weight="700" fill="#fff">2K</text>
  </g>

  <g transform="translate(19 231)" fill="#e8eef2" opacity="0.95">
    <path d="M2 8h10v8H2z" fill="none" stroke="#e8eef2" stroke-width="1.6"/>
    <path d="M5 16h4v3H5z"/>
    <path d="M16 5c3 3 3 10 0 13" fill="none" stroke="#e8eef2" stroke-width="1.8" stroke-linecap="round"/>
    <path d="M20 2c5 5 5 14 0 19" fill="none" stroke="#e8eef2" stroke-width="1.8" stroke-linecap="round"/>
  </g>

  <text x="27" y="318" text-anchor="middle" font-family="Segoe UI, Arial, sans-serif" font-size="15" font-weight="700" fill="#f6f8fa">19:35</text>
  <text x="27" y="339" text-anchor="middle" font-family="Segoe UI, Arial, sans-serif" font-size="13" fill="#f6f8fa">Saturday</text>
  <text x="27" y="359" text-anchor="middle" font-family="Segoe UI, Arial, sans-serif" font-size="13" fill="#f6f8fa">2026/5/23</text>

  <g transform="translate(86 126)">
    <rect x="0" y="0" width="138" height="86" rx="10" fill="#111820" opacity="0.78"/>
    <text x="16" y="27" font-family="Segoe UI, Arial, sans-serif" font-size="13" fill="#ffffff">Tray icons show:</text>
    <text x="16" y="51" font-family="Segoe UI, Arial, sans-serif" font-size="12" fill="#d7dde2">CPU / GPU W / MEM</text>
    <text x="16" y="70" font-family="Segoe UI, Arial, sans-serif" font-size="12" fill="#d7dde2">Download / Upload</text>
  </g>
</svg>
